<?xml version="1.0" encoding="UTF-8"?>
<svg id="Layer_1" data-name="Layer 1" xmlns="http://www.w3.org/2000/svg" viewBox="0 0 150 50">
  <defs>
    <style>
      .cls-1 {
        opacity: .7;
      }

      .cls-2 {
        fill: #ffdab9;
      }

      .cls-2, .cls-3, .cls-4 {
        stroke-width: 0px;
      }

      .cls-3 {
        fill: none;
      }

      .cls-4 {
        fill: #8e4585;
      }
    </style>
  </defs>
  <g>
    <g id="SvgjsG2198">
      <path class="cls-2" d="m84.4,16.4c0,0,0,0,0-.1h0s0-.3,0-.3c.3-.9-.3-1.2-.4-1.3,0,0,0-.2,0-.3,0-.3-.2-.5-.4-.6.4-.9,0-2.2-1-3-1-.9-2.4-1-3.2-.5l-.6-.3-2.7-2.1c-.1,0-.2-.1-.4-.1h-2.9v-.4c0-.4-.1-.8-.3-1.1l-1-1.6s0,0-.1,0l-1,1.6c-.2.3-.3.7-.3,1.1v2.5h-.6c-.2,0-.4.2-.4.4v2.2c-4.2,1.1-7.3,4.7-7.3,9.1s1.1,5.2,3.2,7c.3.2.6.4,1,.4h11.2c.4,0,.7-.1,1-.4,2-1.8,3.2-4.3,3.2-7,0-4.4-3.1-8.1-7.3-9.1v-2.2c0-.2-.2-.4-.4-.4h-.6v-1.3h2.9c.1,0,.3,0,.4.1l2.3,1.7.4.5c-.4.9,0,2.2,1,3.1,1,.8,2.2,1,3,.6.1.2.3.3.6.3s0,0,0,0c0,.3,0,.7.6,1v.2c0,.3,0,.8,0,1.5-.3,1.5-.4,4.3.2,8.5,0,.3,0,.4-.1.7l.2.2c0,0,0-.1,0-.2,0,.3.1.7.2,1.1l.2-.2c-.1-.6-.2-1-.3-1.5,0-.3.1-.7.1-1.1.1.5.2,1,.4,1.6,0,.7,0,1.3,0,2.1h.3c0-.6,0-.8,0-1.3,0,0,0,0,0,0h.2c0-.4-.1-.6-.2-.9,0-.2,0-.4,0-.6,0,.4.2.8.3,1.2,0,.3-.1.4-.2.7l.2.2c0,.2,0,.2,0,.4l.2.2c0-.2,0-.5,0-.7,0,.1,0,.2,0,.3l.2-.3c0-.3-.1-.4-.2-.7,0,0,0-.1,0-.2,0-.2.1-.4.2-.6,0,.3,0,.4,0,.7l.2.2c0-.8,0-1.5,0-2.2.6-4.7-1.2-8.4-1.6-9.1Zm-14.1-9.1c0-.3,0-.6.2-.9l.8-1.7h0s.9,1.7.9,1.7c.2.3.2.6.2,1v2.6h-.3v-2.8c0-.2,0-.5-.1-.7l-.6-1.8h0v5.2h-1v-2.7h0Zm.8,5.7c-.3.6-.9,2.4,0,5.4v.4c.4,1,.7,1.9.8,3,0,0-.1,0-.2,0,0-1.1-.4-2.1-.7-3v-.3c-1-3.1-.3-4.9-.1-5.4h.1Zm-1.5-2.9h1.7v2.4h-1.7v-2.4Zm4,2.9c4,1,6.8,4.4,6.8,8.7s-.8,4.4-2.7,6c-.3.2-.6.4-1,.4h-10.9c-.4,0-.7-.1-1-.4-1.9-1.6-2.7-3.5-2.7-6,0-4.2,2.8-7.7,6.8-8.7h1.9c-.3.6-.9,2.3,0,5.4v.4c.4.9.7,1.9.8,3-.1,0-.2,0-.4-.1-4-1.2-8.1,0-8.1,0,0,0,0,0,0,0,0,2.3.7,3.8,2.3,5.3,0,0,.2.1.3.1h10.9c.1,0,.2,0,.3-.1,1.7-1.5,2.3-3,2.3-5.3h0c-.3,0-3.6.9-7.1.2,0-1.2-.4-2.2-.7-3.2v-.3c-1.1-3.2-.3-5,0-5.3,0,0,2.2,0,2.2,0Zm-.4-2.9v2.4h-.6v-2.4h.6Zm5.1.4l-2.3-1.8c-.1,0-.2-.1-.4-.1h-2.9v-.2h2.9c.1,0,.3,0,.4.1l2.5,1.9v.2Zm5.8,15c-.3-1.8-.3-3.3-.3-4.6,0,1,.2,2.2.4,3.5,0,.4,0,.7-.1,1.1Zm.2-2.2c-.2-1.6-.3-3.1-.3-4.2,0,1,.2,2.1.3,3.4,0,.2,0,.5,0,.7Zm.8-3.6c.1.8.2,1.7.3,2.8-.2-1.7-.4-3.2-.6-4.2.1.4.2.9.4,1.4Zm-.3,4.1c0-.4-.1-.8-.2-1.2,0-1.4,0-2.8-.2-3.9.2,1.2.3,2.9.3,5.1Zm-.3.6c0-.2,0-.4,0-.6,0,.4.2.9.3,1.3,0,.2,0,.4,0,.7-.1-.5-.2-1-.3-1.4Zm.5.7c0-1.7,0-3.2-.2-4.4.2,1.6.4,3.5.5,5.8-.1-.5-.2-.9-.3-1.4Zm.6,1c0-1.1,0-2,0-2.9,0,.7.1,1.4.1,2.1,0,.3,0,.5-.1.8Zm-.3-6.4c0-.3-.1-.7-.2-.9.4,1.2.7,2.7.7,4.5-.1-1.4-.3-2.5-.5-3.5Z"/>
    </g>
    <g id="SvgjsG2199" class="cls-1">
      <path class="cls-4" d="m29.3,41.6h-.1c-.8-.6-1.8-.6-2.7-.2-.7.3-1.4.4-2.2.4-3.1,0-5.6-2.3-5.6-5.3s2.5-5.3,5.6-5.3h.6c1.9,0,3.6,1.1,4.4,2.9h-2.2c-1.1-1.6-2.7-2.5-4.2-2.2-2,.5-2.7,2.8-1.9,5.4.8,2.7,2.8,4.3,4.8,3.9.8-.2,1.4-.7,1.8-1.4v-2.1h-1.5v-.7h3.1s0,4.7,0,4.7Zm1.1,0v-.4c.4-.5.7-1.2.7-1.9v-5.6c0-.7-.3-1.4-.7-1.9v-.4h2.1v7.9c0,.7.3,1.4.7,1.9v.4s-2.9,0-2.9,0Zm9.5,0h-.4c-.7-.3-1.4-.3-2,0-.2,0-.5,0-.7,0-1.4,0-2.6-1.1-2.6-2.5s1.1-2.5,2.6-2.5,1.1.2,1.5.5h0s.1-1.8-.7-2c-.8-.2-1.1.2-1.7,1.2h-1.2c.4-1,1.1-1.7,2.2-1.7s.8,0,1.2.2c0,0,1.9.6,1.9,2.3,0,0,0,4.6,0,4.6Zm-4.5-2.2c.3,1.1,1.2,1.9,2,1.7.8-.2,1.2-1.3.9-2.4-.3-1.1-1.3-1.9-2.1-1.7-.8.2-1.1,1.3-.8,2.4Zm5.7,2.2v-.4c.5-.5.8-1.2.8-1.9v-2.7c0-.6-.2-1.1-.6-1.5l-.2-.2v-.4h2.4v.8c.5-.3,1-.5,1.6-.5.8,0,1.4.2,1.9.7.6-.4,1.4-.7,2.2-.7,1.7,0,2.6,1,2.6,3.6v.8c0,.7.3,1.4.8,1.9v.4h-3.1v-.4c.5-.5.8-1.2.8-1.9v-1.8c0-1.1-1-2.3-2-2-.3,0-.7.3-.9.6.3.5.4,1.3.4,2.3v.8c0,.7.3,1.4.8,1.9v.4h-3.1v-.4c.5-.5.8-1.2.8-1.9v-1.8c0-1.1-1-2.3-2.1-2-.4.1-.6.5-.6.8v2.9c0,.7.2,1.4.7,1.9v.4h-3.1Zm12.1-3.5c0-2.2,1.8-3.6,3.8-3.6s3.9,1.4,3.9,3.6-1.8,3.6-3.9,3.6-3.8-1.4-3.8-3.6Zm1.9.5c.5,1.7,1.7,2.9,2.9,2.6,1.2-.3,1.7-1.9,1.2-3.6-.5-1.7-1.8-2.8-3-2.6-1.2.3-1.6,1.8-1,3.5Zm7.3-.4v-2c0-.3-.1-.6-.3-.8l-.3-.5v-.4h2.5v.4l-.3.4c-.2.3-.3.6-.3.9v3.1c.1.9,1,1.6,1.9,1.6,1.4,0,1.8-1,1.8-1.9v-2.9c0-.4-.2-.8-.5-1.1v-.4h1.6v.4h-.1c-.3.4-.4.8-.4,1.2v3.1c0,.6-.1,2.4-2.4,2.4s-3.2-.5-3.2-3.5Zm7.1,3.4v-.4c.5-.5.7-1.2.7-1.9v-2.4c0-.7-.2-1.4-.7-1.9v-.4h2.4v.8c.5-.5,1.3-.8,1.9-.8s1.1.2,1.1.2l-.3,1.3s-.7-.5-1.5-.5-1.2.7-1.2.9v2.9c0,.7.3,1.4.7,1.9v.4h-3.1Zm10.8,0v-.4c.5-.5.8-1.2.8-1.9v-5.6c0-.7-.3-1.4-.7-1.9v-.4h3.1v.4c-.5.5-.8,1.2-.8,1.9v2.6h4.5v-2.6c0-.7-.3-1.4-.8-1.9v-.4h3.1v.4c-.5.5-.7,1.2-.7,1.9v5.6c0,.7.3,1.4.7,1.9v.4h-3.1v-.4c.5-.5.8-1.2.8-1.9v-2.3h-4.5v2.3c0,.7.3,1.4.8,1.9v.4h-3.1Zm16.1-2.2h1.1c-.5,1.4-1.9,2.4-3.5,2.4s-3.7-1.7-3.7-3.6,1.6-3.7,3.7-3.7,3.7,1.6,3.7,3.6h-5.9c0,.2,0,.4.1.6.5,1.6,1.6,2.8,2.7,2.8s1.6-1,1.8-2h0Zm-4.7-1.9h4.5c-.5-1.5-1.7-2.5-2.8-2.5s-1.7,1.1-1.7,2.2,0,.2,0,.3Zm12.7,4.2h-.4c-.7-.3-1.4-.3-2,0-.2,0-.5,0-.7,0-1.4,0-2.6-1.1-2.6-2.5s1.1-2.5,2.6-2.5,1.1.2,1.5.5h0s.1-1.8-.7-2c-.8-.2-1.1.2-1.7,1.2h-1.2c.4-1,1.1-1.7,2.2-1.7s.8,0,1.2.2c0,0,1.9.6,1.9,2.3,0,0,0,4.6,0,4.6Zm-4.5-2.2c.3,1.1,1.2,1.9,2,1.7.8-.2,1.2-1.3.9-2.4-.3-1.1-1.3-1.9-2.1-1.7-.8.2-1.1,1.3-.8,2.4Zm8.5,2.2l-2.2-5.6c0-.1-.1-.2-.2-.3l-.6-.7v-.4h2.7v.4l-.2.4c-.1.2-.1.5,0,.8l1.8,4.6,1.9-4.8c.1-.4,0-.8-.2-1v-.5h1.7v.5l-.6.4c-.2.1-.3.3-.4.5l-2.2,5.8h-1.6Zm11-2.2h1.1c-.5,1.4-1.9,2.4-3.5,2.4s-3.7-1.7-3.7-3.6,1.6-3.7,3.7-3.7,3.7,1.6,3.7,3.6h-5.9c0,.2,0,.4.1.6.5,1.6,1.6,2.8,2.7,2.8s1.6-1,1.8-2Zm-4.7-1.9h4.5c-.5-1.5-1.7-2.5-2.8-2.5s-1.7,1.1-1.7,2.2,0,.2,0,.3Zm6.8,4.2v-.4c.5-.5.7-1.2.7-1.9v-2.4c0-.7-.3-1.4-.7-1.9v-.4h2.3v.8c.5-.3,1.1-.5,1.6-.5,1.7,0,2.6,1,2.6,3.6v.8c0,.7.3,1.4.8,1.9v.4h-3.1v-.4c.5-.5.8-1.2.8-1.9v-1.8c0-1.1-1-2.3-2.1-2-.4.1-.6.5-.6.8v2.9c0,.7.3,1.4.8,1.9v.4h-3.1,0Z"/>
    </g>
  </g>
  <rect class="cls-3" width="150" height="50"/>
</svg>