<svg xmlns="http://www.w3.org/2000/svg" width="43.456" height="52.381" viewBox="0 0 43.456 52.381"><path d="M21.726,52.381A21.826,21.826,0,0,0,22.6,8.752V.873a.873.873,0,0,0-1.746,0V8.752a21.826,21.826,0,0,0,.873,43.629Zm0-33.175a.873.873,0,0,0,.873-.873V17.7a1.746,1.746,0,1,1-1.746,0v.63a.873.873,0,0,0,.873.873ZM20.853,10.5v5.34a3.492,3.492,0,1,0,1.746,0V10.5a20.079,20.079,0,1,1-1.746,0Zm0,0" transform="translate(0.002 0)"></path><path d="M143.452,271.539a.873.873,0,0,0,1.222-.174L155.151,257.4a.873.873,0,0,0-1.4-1.048l-10.476,13.968A.873.873,0,0,0,143.452,271.539Zm0,0" transform="translate(-127.486 -228.062)"></path><path d="M130.594,262.984a3.492,3.492,0,1,0-3.492-3.492A3.492,3.492,0,0,0,130.594,262.984Zm0-5.238a1.746,1.746,0,1,1-1.746,1.746A1.746,1.746,0,0,1,130.594,257.746Zm0,0" transform="translate(-113.231 -228.063)"></path><path d="M207.1,339.492A3.492,3.492,0,1,0,210.594,336,3.492,3.492,0,0,0,207.1,339.492Zm5.238,0a1.746,1.746,0,1,1-1.746-1.746A1.746,1.746,0,0,1,212.34,339.492Zm0,0" transform="translate(-184.501 -299.333)"></path></svg>